<svg width="1047" height="700" viewBox="0 0 1047 700" fill="none" xmlns="http://www.w3.org/2000/svg">
<path fill-rule="evenodd" clip-rule="evenodd" d="M733.494 223.688C716.722 226.823 733.163 238.515 733.494 223.688V223.688Z" fill="#7AC7FF" fill-opacity="0.51"/>
<path fill-rule="evenodd" clip-rule="evenodd" d="M761.629 413.851C761.297 411.978 760.999 410.115 760.676 408.206C755.703 408.506 752.731 410.252 754.124 415.104C756.62 414.71 759.125 414.28 761.629 413.851Z" fill="#7AC7FF" fill-opacity="0.51"/>
<path fill-rule="evenodd" clip-rule="evenodd" d="M768.344 522.712C748.404 523.517 743.17 542.343 752.432 554.351C772.499 559.728 786.956 530.546 768.344 522.712Z" fill="#7AC7FF" fill-opacity="0.51"/>
<path fill-rule="evenodd" clip-rule="evenodd" d="M740.023 423.28C741.289 425.631 741.763 428.111 750.02 425.466C753.248 420.638 749.374 412.73 745.612 410.774C739.757 413.228 734.229 415.883 736.243 423.937C738.175 424.797 740.036 425.637 740.023 423.28Z" fill="#7AC7FF" fill-opacity="0.51"/>
<path fill-rule="evenodd" clip-rule="evenodd" d="M693.176 660.829C663.858 670.014 667.137 712.564 697.644 710.263C716.573 708.846 728.835 687.576 713.216 665.174C714.064 659.177 719.093 656.123 722.585 652.011C757.639 660.91 778.094 628.174 767.52 598.129C756.353 566.331 705.484 572.284 691.227 603.266C700.159 628.962 683.659 637.596 693.176 660.829Z" fill="#7AC7FF" fill-opacity="0.51"/>
<path fill-rule="evenodd" clip-rule="evenodd" d="M711.06 480.265C687.992 486.229 665.971 491.827 662.958 515.385C650.653 519.83 642.387 527.179 637.661 537.033C641.671 547.405 639.922 556.766 643.328 570.81C636.703 580.952 627.848 589.509 632.113 607.427C636.651 613.425 647.954 609.888 646.519 624.304C658.964 617.923 662.159 619.728 674.983 621.419C672.489 608.074 683.467 604.336 681.518 591.366C691.774 589.332 694.741 582.081 704.619 579.757C703.337 567.838 704.382 557.567 713.647 553.143C711.106 533.182 709.492 502.54 711.06 480.265Z" fill="#7AC7FF" fill-opacity="0.51"/>
<path fill-rule="evenodd" clip-rule="evenodd" d="M692.465 404.275C688.96 379.274 666.211 358.567 639.868 366.842C640.369 366.672 622.889 375.423 620.502 377.82C615.981 382.377 617.619 393.253 610.224 396.926C612.38 413.937 615.102 420.625 622.163 433.485C630.083 432.381 636.09 434.029 638.756 440.36C645.184 434.492 651.428 440.491 657.843 439.06C677.319 434.753 683.965 419.152 692.465 404.275Z" fill="#7AC7FF" fill-opacity="0.51"/>
<path fill-rule="evenodd" clip-rule="evenodd" d="M570.684 505.841C561.501 507.555 557.92 513.275 557.878 521.5C564.963 524.081 574.409 516.289 570.684 505.841Z" fill="#7AC7FF" fill-opacity="0.51"/>
<path fill-rule="evenodd" clip-rule="evenodd" d="M488.723 488.814C482.794 485.176 477.115 487.259 471.841 491.653C472.366 494.791 472.9 497.895 473.424 501.034C482.653 504.531 491.919 501.663 488.723 488.814Z" fill="#7AC7FF" fill-opacity="0.51"/>
<path fill-rule="evenodd" clip-rule="evenodd" d="M946.635 -112.053C947.416 -106.189 949.235 -101.793 952.574 -99.5316C957.419 -95.387 962.798 -102.864 966.018 -99.8761C967.902 -93.0334 957.553 -94.8957 958.224 -88.9091C961.918 -88.6784 969.09 -93.3603 968.232 -86.759C962.666 -83.5442 955.996 -81.1569 952.6 -76.412C956.163 -73.7116 961.227 -73.0757 968.24 -75.1815C969.209 -67.3315 955.046 -70.2534 952.608 -64.8345C960.664 -52.429 951.618 -41.0383 948.601 -31.3342C950.956 -27.6669 957.154 -29.4218 957.689 -23.2063C952.299 -18.2368 936.142 -20.9342 940.815 -8.7897C941.519 -2.0734 950.235 -6.56943 950.201 1.20159C946.406 5.87763 941.245 -1.61559 936.136 -2.22556C928.779 13.9061 945.95 22.3024 953.375 31.5407C966.838 31.6944 973.374 27.8289 979.345 36.8295C978.716 42.9989 969.2 42.84 969.977 49.9932C970.447 54.7494 973.84 55.3929 976.869 56.5461C978.745 62.2861 972.656 62.3622 972.81 66.8819C976.578 74.7609 987.978 71.8569 993.768 76.862C991.734 81.4785 978.715 78.2556 979.711 85.0123C988.735 97.4874 983.569 119.595 966.957 123.835C962.675 134.719 975.563 132.631 977.628 141.344C968.165 143.818 964.374 138.286 956.049 139.205C947.631 145.564 952.774 160.909 954.823 166.43C933.96 167.139 916.689 170.861 921.111 195.272C912.054 199.487 914.496 187.541 906.713 189.972C887.876 199.119 893.786 225.902 878.03 237.279C887.514 267.145 878.292 283.726 871.564 302.038C873.993 305.573 876.649 308.827 879.078 312.362C862.953 324.551 861.924 347.501 844.429 358.715C839.368 357.359 836.894 352.294 830.031 353.415C839.908 370.066 838.266 378.886 837.614 398.446C828.471 394.63 813.776 397.942 818.868 413.196C812.028 415.083 812.682 406.415 804.803 409.769C788.236 434.932 811.472 478.313 784.612 496.164C776.808 493.58 766.594 494.183 758.021 498.717C754.63 491.129 748.89 486.782 738.926 488.439C720.647 467.753 726.833 433.622 760.086 430.843C754.119 414.747 775.811 389.287 753.737 370.165C746.174 377.437 737.874 376.845 730.6 381.765C731.48 371.829 724.17 357.916 728.668 347.356C711.713 332.49 740.926 320.014 742.367 302.601C743.19 292.878 735.744 284.848 737.951 276.331C743.27 255.63 769.414 245.406 794.195 255.272C791.523 244.575 801.375 242.774 800.109 233.061C788.505 233.898 780.615 229.507 775.084 221.839C777.595 208.925 769.172 206.668 777.849 192.408C772.976 187.801 768.974 180.087 765.944 190.546C765.269 188.392 765.377 185.157 763.118 185.235C759.943 189.015 751.762 189.251 746.857 191.846C745.914 183.472 763.037 187.946 759.96 178.051C754.677 176.673 752.889 185.189 752.158 177.441C756.537 173.414 760.407 169.024 756.829 159.299C764.909 153.494 775.703 149.593 772.12 135.502C776.412 131.376 785.217 130.51 787.752 125.154C792.765 94.6943 788.73 65.3011 798.565 40.3456C793.811 37.1362 799.197 34.025 795.12 31.2626C801.706 24.9437 818.102 25.6177 810.743 9.33808C798.507 14.9402 797.844 4.24983 788.831 5.32639C796.615 -10.8426 784.666 -19.0538 778.466 -33.429C788.992 -38.3127 785.534 -52.4465 779.692 -60.6536C787.1 -61.9703 787.668 -68.1941 791.256 -72.2423C791.29 -80.0133 782.574 -75.5173 781.835 -82.2431C785.423 -86.2912 793.798 -86.9694 788.999 -96.9463C800.22 -97.2035 800.177 -112.472 797.117 -117.618C802.826 -121.933 805.587 -118.081 813.999 -120.457C813.667 -122.33 813.37 -124.193 813.046 -126.102C831.781 -128.634 830.659 -140.586 851.5 -138.379C851.662 -143.232 849.522 -149.687 855.226 -150.588C860.3 -149.988 856.187 -136.478 863.072 -138.391C882.364 -137.624 888.066 -146.305 900.563 -156.278C901.181 -149.243 893.447 -148.127 897.789 -138.424C913.174 -131.569 932.046 -138.581 941.228 -143.825C939.939 -137.036 930.141 -136.283 932.489 -126.925C938.409 -114.902 958.82 -126.663 965.308 -126.671C959.604 -121.52 950.138 -118.895 946.635 -112.053ZM851.397 205.018C853.783 210.553 846.859 209.495 849.245 215.03C855.07 216.933 859.713 220.416 865.838 221.905C867.031 216.039 862.093 201.622 851.397 205.018Z" fill="#7AC7FF" fill-opacity="0.51"/>
<path fill-rule="evenodd" clip-rule="evenodd" d="M159.335 130.356C145.41 127.832 138.88 140.052 143.435 149.793C156.493 156.614 171.006 138.652 159.335 130.356Z" fill="#78C6FF" fill-opacity="0.47"/>
<path fill-rule="evenodd" clip-rule="evenodd" d="M90.3733 220.108C68.6645 221.935 64.3615 251.888 85.8303 255.009C99.1497 256.953 110.921 244.127 103.572 226.211C105.085 222.192 109.037 220.855 112.089 218.549C134.975 230.123 154.188 210.628 151.511 188.202C148.694 164.471 112.568 160.732 97.9158 179.97C100.129 199.133 87.3757 202.559 90.3733 220.108Z" fill="#78C6FF" fill-opacity="0.47"/>
<path fill-rule="evenodd" clip-rule="evenodd" d="M275.821 116.112C250.81 113.886 226.945 111.681 221.181 130.416C207.701 130.283 198.167 133.839 192.096 140.591C195.193 150.508 192.32 157.779 194.376 170.573C186.269 176.974 175.981 181.354 178.519 197.651C182.653 204.078 194.975 204.656 191.879 216.248C205.719 214.807 208.895 217.313 222.249 222.732C221.08 210.807 233.081 211.115 232.445 199.674C243.497 201.179 247.425 196.05 258.11 197.195C258.063 186.84 260.293 178.588 270.56 177.788C270.066 160.323 271.722 134.226 275.821 116.112Z" fill="#78C6FF" fill-opacity="0.47"/>
<path fill-rule="evenodd" clip-rule="evenodd" d="M74.753 477.215C90.0781 423.077 11.1795 429.839 9.17708 465.657C7.45271 496.341 64.4426 513.561 74.753 477.215Z" fill="#78C6FF" fill-opacity="0.47"/>
<path fill-rule="evenodd" clip-rule="evenodd" d="M58.5186 273.681C63.0903 253.37 29.7412 252.958 27.6803 269.36C25.5681 286.029 53.9982 293.725 58.5186 273.681Z" fill="#78C6FF" fill-opacity="0.47"/>
<path fill-rule="evenodd" clip-rule="evenodd" d="M587.01 601.168C587.063 571.807 541.037 581.487 543.239 604.696C545.453 628.288 586.946 630.146 587.01 601.168Z" fill="#7AC7FF" fill-opacity="0.51"/>
</svg>
