<svg width="834" height="700" viewBox="0 0 834 700" fill="none" xmlns="http://www.w3.org/2000/svg">
<path fill-rule="evenodd" clip-rule="evenodd" d="M91.1881 688.696C87.6831 663.695 64.9339 642.988 38.5918 651.262C39.0924 651.093 21.6125 659.844 19.2254 662.24C14.7042 666.798 16.342 677.673 8.94711 681.347C11.1031 698.357 13.8251 705.045 20.8865 717.905C28.8067 716.802 34.8138 718.449 37.4796 724.78C43.9073 718.912 50.1517 724.912 56.5665 723.481C76.042 719.173 82.6879 703.572 91.1881 688.696Z" fill="#86CBFD" fill-opacity="0.61"/>
<path fill-rule="evenodd" clip-rule="evenodd" d="M152.764 109.419C134.266 113.08 130.959 127.589 123.26 138.985C126.206 156.525 143.112 154.471 152.048 163.74C181.415 155.632 182.22 116.149 152.764 109.419Z" fill="#86CBFD" fill-opacity="0.61"/>
<path fill-rule="evenodd" clip-rule="evenodd" d="M297.764 77.4186C279.266 81.0798 275.959 95.589 268.26 106.985C271.206 124.525 288.112 122.471 297.048 131.74C326.415 123.632 327.22 84.1493 297.764 77.4186Z" fill="#86CBFD" fill-opacity="0.61"/>
<path fill-rule="evenodd" clip-rule="evenodd" d="M218.01 220.168C218.063 190.807 172.037 200.487 174.239 223.696C176.453 247.288 217.946 249.146 218.01 220.168Z" fill="#86CBFD" fill-opacity="0.61"/>
<path fill-rule="evenodd" clip-rule="evenodd" d="M800.143 116.033C839.488 13.1996 656.218 -25.8148 633.422 59.0307C610.158 145.235 761.266 217.507 800.143 116.033Z" fill="#6CC1FF" fill-opacity="0.59"/>
<path fill-rule="evenodd" clip-rule="evenodd" d="M647.289 307.37C621.919 313.162 617.033 334.345 606.224 351.111C609.805 376.543 632.959 373.128 644.935 386.381C685.27 373.848 687.37 316.412 647.289 307.37Z" fill="#86CBFD" fill-opacity="0.61"/>
<path fill-rule="evenodd" clip-rule="evenodd" d="M678.102 401.633C658.872 405.44 655.433 420.524 647.429 432.372C650.492 450.607 668.068 448.472 677.358 458.108C707.889 449.679 708.726 408.631 678.102 401.633Z" fill="#6CC1FF" fill-opacity="0.61"/>
<path fill-rule="evenodd" clip-rule="evenodd" d="M699.188 265.695C695.683 240.695 672.934 219.988 646.592 228.262C647.092 228.093 629.612 236.844 627.225 239.24C622.704 243.797 624.342 254.673 616.947 258.346C619.103 275.357 621.825 282.045 628.887 294.905C636.807 293.801 642.814 295.449 645.48 301.78C651.907 295.912 658.152 301.912 664.566 300.481C684.042 296.173 690.688 280.572 699.188 265.695Z" fill="#86CBFD" fill-opacity="0.61"/>
<path fill-rule="evenodd" clip-rule="evenodd" d="M749.406 492.159C647.658 519.629 646.898 609.192 711.419 651.21C822.436 650.938 856.342 504.499 749.406 492.159Z" fill="#6CC1FF" fill-opacity="0.59"/>
</svg>
